<svg viewBox="0 0 24 30" fill="none" xmlns="http://www.w3.org/2000/svg">
  <g>
    <path d="M19.2816 19.5722C18.9155 19.6801 18.3779 19.6922 17.8016 19.6087C17.1831 19.5192 16.5522 19.3304 15.9321 19.0522C17.0379 18.8916 17.8957 18.9411 18.6295 19.2007C18.8033 19.2622 19.0888 19.4266 19.2816 19.5722ZM13.1119 18.5594C13.0669 18.5716 13.0226 18.5832 12.9785 18.5954C12.6809 18.6763 12.3914 18.7552 12.1125 18.8254L11.7363 18.9206C10.9795 19.1118 10.2058 19.3071 9.44165 19.5397C9.73206 18.8405 10.0019 18.1335 10.2661 17.4423C10.4617 16.9306 10.6614 16.408 10.868 15.892C10.9728 16.0648 11.0821 16.2377 11.1959 16.411C11.7144 17.1994 12.3661 17.9284 13.1119 18.5594ZM11.187 10.6744C11.2361 11.5373 11.0496 12.3673 10.7761 13.1635C10.4392 12.1789 10.2822 11.0917 10.7034 10.2139C10.8114 9.98887 10.8999 9.86858 10.9573 9.8058C11.0459 9.94245 11.1625 10.2481 11.187 10.6744ZM7.23641 21.604C7.04712 21.9422 6.8539 22.2586 6.65587 22.5575C6.17797 23.2766 5.39638 24.0466 4.99486 24.0466C4.95535 24.0466 4.90754 24.0402 4.83767 23.9666C4.7927 23.9195 4.78549 23.8857 4.78767 23.8396C4.80121 23.5753 5.15205 23.1044 5.6603 22.6679C6.12161 22.2718 6.64302 21.9197 7.23641 21.604ZM20.5601 19.6096C20.4987 18.7289 19.0139 18.1639 18.9993 18.1587C18.4253 17.9555 17.8018 17.8568 17.0931 17.8568C16.3345 17.8568 15.5166 17.9664 14.4663 18.2114C13.5316 17.5499 12.7243 16.7218 12.1211 15.805C11.8547 15.3999 11.6152 14.9956 11.4065 14.6006C11.9161 13.3841 12.375 12.076 12.2916 10.6109C12.2244 9.4362 11.6938 8.64713 10.9723 8.64713C10.4774 8.64713 10.0512 9.01313 9.70471 9.73598C9.08657 11.024 9.24905 12.6721 10.1874 14.6388C9.84946 15.4313 9.53547 16.253 9.23155 17.0483C8.85341 18.0373 8.46377 19.0577 8.02464 20.0284C6.79312 20.5149 5.78139 21.1049 4.93823 21.8293C4.38588 22.303 3.71998 23.0271 3.68198 23.783C3.66342 24.139 3.78568 24.4655 4.03413 24.7271C4.29809 25.0049 4.6297 25.1511 4.99433 25.1516C6.1986 25.1516 7.35766 23.4995 7.57754 23.1682C8.02006 22.5022 8.43425 21.7593 8.84011 20.9024C9.86231 20.5336 10.9517 20.2583 12.0075 19.9921L12.3857 19.8962C12.6699 19.8241 12.9653 19.7443 13.2684 19.6615C13.589 19.5749 13.9189 19.4852 14.2543 19.3999C15.3384 20.0883 16.5043 20.5373 17.6414 20.7021C18.5991 20.8412 19.4497 20.7605 20.0255 20.4608C20.5435 20.1914 20.5721 19.7757 20.5601 19.6096ZM22.8924 27.1821C22.8924 28.7949 21.4687 28.8944 21.1814 28.8976H2.81304C1.20356 28.8976 1.10664 27.4664 1.10357 27.1821L1.10335 2.81731C1.10335 1.20292 2.52968 1.10505 2.81282 1.10181H15.221L15.2276 1.10835V5.94297C15.2276 6.91322 15.8151 8.75017 18.04 8.75017H22.8509L22.8922 8.79135L22.8924 27.1821ZM21.7519 7.6482H18.0409C16.4318 7.6482 16.3345 6.22477 16.3323 5.94313V2.2148L21.7519 7.6482ZM23.996 27.1821V8.33677L16.3323 0.653266V0.617518H16.2957L15.6802 0H2.81308C1.84003 0 0 0.589002 0 2.81783V27.1826C0 28.157 0.588136 30 2.81308 30H21.1832C22.156 29.9998 23.996 29.4107 23.996 27.1821Z" fill="#EB5757"/>
  </g>
</svg>